<svg xmlns="http://www.w3.org/2000/svg" viewBox="0 0 400 300" class="w-full h-auto drop-shadow-sm" preserveAspectRatio="xMidYMid meet"><style>
        .robot-arm {
          transform: translateY(-300px);
          transition: transform 0.65s cubic-bezier(0.34, 1.56, 0.64, 1);
        }
        .svg-wrapper:hover .robot-arm {
          transform: translateY(0);
        }
        
        .eye-pulse {
          animation: eyePulse 2s infinite;
        }
        @keyframes eyePulse {
          0% { fill: #FDE047; }
          50% { fill: #FEF08A; }
          100% { fill: #FDE047; }
        }
      </style><g class="svg-wrapper" pointer-events="all"><rect x="0" y="0" width="400" height="300" fill="transparent"/><g transform="translate(0, 10)"><rect x="172.5" y="145" width="55" height="80" rx="8" fill="#F8FAFC" stroke="#CBD5E1" stroke-width="4" stroke-dasharray="6 6" stroke-linecap="round"/><path d="M 60 250 L 60 270 M 340 250 L 340 270" stroke="#0F172A" stroke-width="6" stroke-linecap="round"/><rect x="20" y="238" width="360" height="12" rx="4" fill="#94A3B8" stroke="#0F172A" stroke-width="6" stroke-linejoin="round"/><rect x="20" y="225" width="360" height="13" rx="4" fill="#FFFFFF" stroke="#0F172A" stroke-width="6" stroke-linejoin="round"/><g transform="translate(45, 125)"><rect x="0" y="0" width="45" height="100" rx="12" fill="#FDB022" stroke="#0F172A" stroke-width="6" stroke-linejoin="round"/><path d="M 12 0 L 12 100" stroke="#FFFFFF" stroke-width="4" stroke-linecap="round" opacity="0.4"/><rect x="-3" y="40" width="51" height="25" fill="#FFFBEB" stroke="#0F172A" stroke-width="6" rx="4"/><line x1="8" y1="52.5" x2="37" y2="52.5" stroke="#0F172A" stroke-width="4" stroke-linecap="round"/></g><g transform="translate(100, 165)"><rect x="0" y="0" width="55" height="60" rx="6" fill="#12B76A" stroke="#0F172A" stroke-width="6" stroke-linejoin="round"/><circle cx="27.5" cy="30" r="12" fill="#D1FADF" stroke="#0F172A" stroke-width="5"/></g><g transform="translate(245, 185)"><rect x="0" y="0" width="50" height="40" rx="8" fill="#9E77ED" stroke="#0F172A" stroke-width="6" stroke-linejoin="round"/><rect x="5" y="-10" width="40" height="15" rx="4" fill="#F4EBFF" stroke="#0F172A" stroke-width="6" stroke-linejoin="round"/><rect x="15" y="15" width="20" height="15" rx="2" fill="#FFFFFF" stroke="#0F172A" stroke-width="4"/></g><g transform="translate(305, 115)"><path d="M 10 30 Q 0 30 0 45 L 0 110 L 45 110 L 45 45 Q 45 30 35 30 L 30 30 L 30 0 L 15 0 L 15 30 Z" fill="#F04438" stroke="#0F172A" stroke-width="6" stroke-linejoin="round"/><rect x="10" y="60" width="25" height="30" rx="4" fill="#FEF3F2" stroke="#0F172A" stroke-width="6"/><line x1="16" y1="75" x2="29" y2="75" stroke="#0F172A" stroke-width="4" stroke-linecap="round"/></g><g class="robot-arm"><path d="M 200 -200 L 200 115" stroke="#0F172A" stroke-width="22" stroke-linecap="round"/><path d="M 200 -200 L 200 115" stroke="#E2E8F0" stroke-width="10" stroke-linecap="round"/><g transform="translate(172.5, 145)"><rect x="0" y="0" width="55" height="80" rx="8" fill="#06AED4" stroke="#0F172A" stroke-width="6" stroke-linejoin="round"/><rect x="10" y="30" width="35" height="20" rx="4" fill="#E0F2FE" stroke="#0F172A" stroke-width="6"/><circle cx="27.5" cy="40" r="3" fill="#06AED4"/></g><circle cx="200" cy="120" r="18" fill="#F8FAFC" stroke="#0F172A" stroke-width="6"/><circle cx="200" cy="120" r="5" fill="#FDE047" class="eye-pulse" stroke="#0F172A" stroke-width="4"/><path d="M 183 125 C 158 135 160 160 170 180" fill="none" stroke="#0F172A" stroke-width="12" stroke-linecap="round"/><path d="M 183 125 C 158 135 160 160 170 180" fill="none" stroke="#94A3B8" stroke-width="4" stroke-linecap="round"/><path d="M 217 125 C 242 135 240 160 230 180" fill="none" stroke="#0F172A" stroke-width="12" stroke-linecap="round"/><path d="M 217 125 C 242 135 240 160 230 180" fill="none" stroke="#94A3B8" stroke-width="4" stroke-linecap="round"/></g></g></g></svg>